<svg xmlns="http://www.w3.org/2000/svg" width="20.689" height="20.688" viewBox="0 0 20.689 20.688">
  <g id="グループ_250" data-name="グループ 250" transform="translate(-413.93 -52.321)" opacity="0.7">
    <path id="パス_1008" data-name="パス 1008" d="M424.274,52.321a10.344,10.344,0,1,0,10.345,10.344A10.356,10.356,0,0,0,424.274,52.321Zm0,19.188a8.844,8.844,0,1,1,8.845-8.844A8.854,8.854,0,0,1,424.274,71.509Z" fill="#fff"/>
    <path id="パス_1009" data-name="パス 1009" d="M426.675,61.938a3.692,3.692,0,1,0-4.8,0,6.476,6.476,0,0,0-3.362,5.812.75.75,0,0,0,.75.75h10.027a.75.75,0,0,0,.75-.75A6.477,6.477,0,0,0,426.675,61.938Zm-4.593-2.782a2.192,2.192,0,1,1,2.192,2.192A2.2,2.2,0,0,1,422.082,59.156ZM420.06,67a4.214,4.214,0,0,1,8.428,0Z" fill="#fff"/>
  </g>
</svg>
